<svg width="81" height="17" viewBox="0 0 81 17" fill="none" xmlns="http://www.w3.org/2000/svg">
<path d="M12.1776 0.880005V12H10.3536V4.38401L6.96164 12H5.69764L2.28964 4.38401V12H0.465637V0.880005H2.43364L6.33764 9.60001L10.2256 0.880005H12.1776Z" fill="white"/>
<path d="M22.511 3.18401L17.103 16.144H15.215L17.007 11.856L13.535 3.18401H15.567L18.047 9.90401L20.623 3.18401H22.511Z" fill="white"/>
<path d="M39.7558 0.880005V12H37.9318V4.38401L34.5398 12H33.2758L29.8678 4.38401V12H28.0438V0.880005H30.0118L33.9158 9.60001L37.8038 0.880005H39.7558Z" fill="white"/>
<path d="M45.9771 12.144C45.1451 12.144 44.3931 11.9573 43.7211 11.584C43.0491 11.2 42.5211 10.6667 42.1371 9.98401C41.7531 9.29067 41.5611 8.49067 41.5611 7.58401C41.5611 6.68801 41.7585 5.89334 42.1531 5.20001C42.5478 4.50667 43.0865 3.97334 43.7691 3.60001C44.4518 3.22667 45.2145 3.04001 46.0571 3.04001C46.8998 3.04001 47.6625 3.22667 48.3451 3.60001C49.0278 3.97334 49.5665 4.50667 49.9611 5.20001C50.3558 5.89334 50.5531 6.68801 50.5531 7.58401C50.5531 8.48001 50.3505 9.27467 49.9451 9.96801C49.5398 10.6613 48.9851 11.2 48.2811 11.584C47.5878 11.9573 46.8198 12.144 45.9771 12.144ZM45.9771 10.56C46.4465 10.56 46.8838 10.448 47.2891 10.224C47.7051 10 48.0411 9.66401 48.2971 9.21601C48.5531 8.76801 48.6811 8.22401 48.6811 7.58401C48.6811 6.94401 48.5585 6.40534 48.3131 5.96801C48.0678 5.52001 47.7425 5.18401 47.3371 4.96001C46.9318 4.73601 46.4945 4.62401 46.0251 4.62401C45.5558 4.62401 45.1185 4.73601 44.7131 4.96001C44.3185 5.18401 44.0038 5.52001 43.7691 5.96801C43.5345 6.40534 43.4171 6.94401 43.4171 7.58401C43.4171 8.53334 43.6571 9.26934 44.1371 9.79201C44.6278 10.304 45.2411 10.56 45.9771 10.56Z" fill="white"/>
<path d="M56.8043 3.04001C57.4976 3.04001 58.1163 3.18401 58.6603 3.472C59.2149 3.76 59.6469 4.18667 59.9563 4.75201C60.2656 5.31734 60.4203 6.00001 60.4203 6.80001V12H58.6123V7.07201C58.6123 6.28267 58.4149 5.68001 58.0203 5.26401C57.6256 4.83734 57.0869 4.62401 56.4043 4.62401C55.7216 4.62401 55.1776 4.83734 54.7723 5.26401C54.3776 5.68001 54.1803 6.28267 54.1803 7.07201V12H52.3563V3.18401H54.1803V4.19201C54.4789 3.82934 54.8576 3.54667 55.3163 3.34401C55.7856 3.14134 56.2816 3.04001 56.8043 3.04001Z" fill="white"/>
<path d="M70.8269 7.37601C70.8269 7.70667 70.8056 8.00534 70.7629 8.27201H64.0269C64.0802 8.97601 64.3416 9.54134 64.8109 9.96801C65.2802 10.3947 65.8562 10.608 66.5389 10.608C67.5202 10.608 68.2136 10.1973 68.6189 9.37601H70.5869C70.3202 10.1867 69.8349 10.8533 69.1309 11.376C68.4376 11.888 67.5736 12.144 66.5389 12.144C65.6962 12.144 64.9389 11.9573 64.2669 11.584C63.6056 11.2 63.0829 10.6667 62.6989 9.98401C62.3256 9.29067 62.1389 8.49067 62.1389 7.58401C62.1389 6.67734 62.3202 5.88267 62.6829 5.20001C63.0562 4.50667 63.5736 3.97334 64.2349 3.60001C64.9069 3.22667 65.6749 3.04001 66.5389 3.04001C67.3709 3.04001 68.1122 3.22134 68.7629 3.58401C69.4136 3.94667 69.9202 4.45867 70.2829 5.12001C70.6456 5.77067 70.8269 6.52267 70.8269 7.37601ZM68.9229 6.80001C68.9122 6.12801 68.6722 5.58934 68.2029 5.18401C67.7336 4.77867 67.1522 4.57601 66.4589 4.57601C65.8296 4.57601 65.2909 4.77867 64.8429 5.18401C64.3949 5.57867 64.1282 6.11734 64.0429 6.80001H68.9229Z" fill="white"/>
<path d="M80.5579 3.18401L75.1499 16.144H73.2619L75.0539 11.856L71.5819 3.18401H73.6139L76.0939 9.90401L78.6699 3.18401H80.5579Z" fill="white"/>
</svg>
