<svg width="170" height="40" viewBox="0 0 170 40" fill="none" xmlns="http://www.w3.org/2000/svg">
<path d="M70.9628 8V25.4843H68.3211V13.5094L63.4084 25.4843H61.5777L56.6418 13.5094V25.4843H54V8H56.8503L62.5046 21.7107L68.1357 8H70.9628Z" fill="white"/>
<path d="M85.929 11.6226L78.0964 32H75.362L77.9574 25.2579L72.9288 11.6226H75.8718L79.4636 22.1887L83.1945 11.6226H85.929Z" fill="white"/>
<path d="M110.905 8V25.4843H108.263V13.5094L103.351 25.4843H101.52L96.584 13.5094V25.4843H93.9422V8H96.7925L102.447 21.7107L108.078 8H110.905Z" fill="white"/>
<path d="M119.916 25.7107C118.711 25.7107 117.622 25.4172 116.648 24.8302C115.675 24.2264 114.91 23.3878 114.354 22.3145C113.798 21.2243 113.52 19.9665 113.52 18.5409C113.52 17.1321 113.806 15.8826 114.377 14.7925C114.949 13.7023 115.729 12.8637 116.718 12.2767C117.706 11.6897 118.811 11.3962 120.032 11.3962C121.252 11.3962 122.357 11.6897 123.345 12.2767C124.334 12.8637 125.114 13.7023 125.686 14.7925C126.257 15.8826 126.543 17.1321 126.543 18.5409C126.543 19.9497 126.25 21.1992 125.663 22.2893C125.076 23.3795 124.272 24.2264 123.253 24.8302C122.248 25.4172 121.136 25.7107 119.916 25.7107ZM119.916 23.2201C120.595 23.2201 121.229 23.044 121.816 22.6918C122.418 22.3396 122.905 21.8113 123.276 21.1069C123.647 20.4025 123.832 19.5472 123.832 18.5409C123.832 17.5346 123.654 16.6876 123.299 16C122.944 15.2956 122.472 14.7673 121.885 14.4151C121.298 14.0629 120.665 13.8868 119.985 13.8868C119.305 13.8868 118.672 14.0629 118.085 14.4151C117.513 14.7673 117.058 15.2956 116.718 16C116.378 16.6876 116.208 17.5346 116.208 18.5409C116.208 20.0335 116.556 21.1908 117.251 22.0126C117.961 22.8176 118.85 23.2201 119.916 23.2201Z" fill="white"/>
<path d="M135.597 11.3962C136.601 11.3962 137.497 11.6226 138.285 12.0755C139.088 12.5283 139.714 13.1992 140.162 14.0881C140.61 14.9769 140.834 16.0503 140.834 17.3082V25.4843H138.215V17.7358C138.215 16.4948 137.93 15.5472 137.358 14.8931C136.786 14.2222 136.006 13.8868 135.018 13.8868C134.029 13.8868 133.241 14.2222 132.654 14.8931C132.082 15.5472 131.797 16.4948 131.797 17.7358V25.4843H129.155V11.6226H131.797V13.2075C132.229 12.6373 132.778 12.1929 133.442 11.8742C134.122 11.5556 134.84 11.3962 135.597 11.3962Z" fill="white"/>
<path d="M155.906 18.2138C155.906 18.7338 155.875 19.2034 155.814 19.6226H146.058C146.135 20.7296 146.513 21.6184 147.193 22.2893C147.873 22.9602 148.707 23.2956 149.696 23.2956C151.117 23.2956 152.121 22.6499 152.708 21.3585H155.559C155.172 22.6331 154.47 23.6813 153.45 24.5031C152.446 25.3082 151.194 25.7107 149.696 25.7107C148.475 25.7107 147.379 25.4172 146.405 24.8302C145.447 24.2264 144.69 23.3878 144.134 22.3145C143.594 21.2243 143.323 19.9665 143.323 18.5409C143.323 17.1153 143.586 15.8658 144.111 14.7925C144.652 13.7023 145.401 12.8637 146.359 12.2767C147.332 11.6897 148.445 11.3962 149.696 11.3962C150.901 11.3962 151.975 11.6813 152.917 12.2516C153.859 12.8218 154.593 13.6268 155.118 14.6667C155.644 15.6897 155.906 16.8721 155.906 18.2138ZM153.149 17.3082C153.133 16.2516 152.786 15.4046 152.106 14.7673C151.426 14.13 150.584 13.8113 149.58 13.8113C148.669 13.8113 147.888 14.13 147.24 14.7673C146.591 15.3878 146.204 16.2348 146.081 17.3082H153.149Z" fill="white"/>
<path d="M170 11.6226L162.167 32H159.433L162.028 25.2579L157 11.6226H159.943L163.535 22.1887L167.266 11.6226H170Z" fill="white"/>
<g clip-path="url(#clip0_1_32)">
<path d="M34.1422 5.85781C30.3647 2.08031 25.3422 0 20 0C14.6578 0 9.63531 2.08031 5.85781 5.85781C2.08031 9.63531 0 14.6578 0 20C0 25.3422 2.08039 30.3646 5.85781 34.1422C9.63523 37.9198 14.6578 40 20 40C25.3422 40 30.3647 37.9197 34.1422 34.1422C37.9197 30.3647 40 25.3422 40 20C40 14.6578 37.9196 9.63539 34.1422 5.85781Z" fill="#33CC95"/>
<path d="M20.5714 8V33.1429" stroke="white" stroke-width="2" stroke-linecap="round" stroke-linejoin="round"/>
<path d="M26.2857 12.5714H17.7143C16.6534 12.5714 15.636 12.9929 14.8859 13.743C14.1357 14.4931 13.7143 15.5106 13.7143 16.5714C13.7143 17.6323 14.1357 18.6497 14.8859 19.3999C15.636 20.15 16.6534 20.5714 17.7143 20.5714H23.4286C24.4894 20.5714 25.5069 20.9929 26.257 21.743C27.0072 22.4932 27.4286 23.5106 27.4286 24.5714C27.4286 25.6323 27.0072 26.6497 26.257 27.3999C25.5069 28.15 24.4894 28.5714 23.4286 28.5714H13.7143" stroke="white" stroke-width="2" stroke-linecap="round" stroke-linejoin="round"/>
</g>
<defs>
<clipPath id="clip0_1_32">
<rect width="40" height="40" fill="white"/>
</clipPath>
</defs>
</svg>
