<svg width="170" height="40" viewBox="0 0 170 40" fill="none" xmlns="http://www.w3.org/2000/svg">
<path d="M70.9628 9V26.4843H68.3211V14.5094L63.4084 26.4843H61.5777L56.6418 14.5094V26.4843H54V9H56.8503L62.5046 22.7107L68.1357 9H70.9628Z" fill="white"/>
<path d="M85.929 12.6226L78.0964 33H75.362L77.9574 26.2579L72.9288 12.6226H75.8718L79.4636 23.1887L83.1945 12.6226H85.929Z" fill="white"/>
<path d="M110.905 9V26.4843H108.263V14.5094L103.351 26.4843H101.52L96.584 14.5094V26.4843H93.9422V9H96.7925L102.447 22.7107L108.078 9H110.905Z" fill="white"/>
<path d="M119.916 26.7107C118.711 26.7107 117.622 26.4172 116.648 25.8302C115.675 25.2264 114.91 24.3878 114.354 23.3145C113.798 22.2243 113.52 20.9665 113.52 19.5409C113.52 18.1321 113.806 16.8826 114.377 15.7925C114.949 14.7023 115.729 13.8637 116.718 13.2767C117.706 12.6897 118.811 12.3962 120.032 12.3962C121.252 12.3962 122.357 12.6897 123.345 13.2767C124.334 13.8637 125.114 14.7023 125.686 15.7925C126.257 16.8826 126.543 18.1321 126.543 19.5409C126.543 20.9497 126.25 22.1992 125.663 23.2893C125.076 24.3795 124.272 25.2264 123.253 25.8302C122.248 26.4172 121.136 26.7107 119.916 26.7107ZM119.916 24.2201C120.595 24.2201 121.229 24.044 121.816 23.6918C122.418 23.3396 122.905 22.8113 123.276 22.1069C123.647 21.4025 123.832 20.5472 123.832 19.5409C123.832 18.5346 123.654 17.6876 123.299 17C122.944 16.2956 122.472 15.7673 121.885 15.4151C121.298 15.0629 120.665 14.8868 119.985 14.8868C119.305 14.8868 118.672 15.0629 118.085 15.4151C117.513 15.7673 117.058 16.2956 116.718 17C116.378 17.6876 116.208 18.5346 116.208 19.5409C116.208 21.0335 116.556 22.1908 117.251 23.0126C117.961 23.8176 118.85 24.2201 119.916 24.2201Z" fill="white"/>
<path d="M135.597 12.3962C136.601 12.3962 137.497 12.6226 138.285 13.0755C139.088 13.5283 139.714 14.1992 140.162 15.0881C140.61 15.9769 140.834 17.0503 140.834 18.3082V26.4843H138.215V18.7358C138.215 17.4948 137.93 16.5472 137.358 15.8931C136.786 15.2222 136.006 14.8868 135.018 14.8868C134.029 14.8868 133.241 15.2222 132.654 15.8931C132.082 16.5472 131.797 17.4948 131.797 18.7358V26.4843H129.155V12.6226H131.797V14.2075C132.229 13.6373 132.778 13.1929 133.442 12.8742C134.122 12.5556 134.84 12.3962 135.597 12.3962Z" fill="white"/>
<path d="M155.906 19.2138C155.906 19.7338 155.875 20.2034 155.814 20.6226H146.058C146.135 21.7296 146.513 22.6184 147.193 23.2893C147.873 23.9602 148.707 24.2956 149.696 24.2956C151.117 24.2956 152.121 23.6499 152.708 22.3585H155.559C155.172 23.6331 154.47 24.6813 153.45 25.5031C152.446 26.3082 151.194 26.7107 149.696 26.7107C148.475 26.7107 147.379 26.4172 146.405 25.8302C145.447 25.2264 144.69 24.3878 144.134 23.3145C143.594 22.2243 143.323 20.9665 143.323 19.5409C143.323 18.1153 143.586 16.8658 144.111 15.7925C144.652 14.7023 145.401 13.8637 146.359 13.2767C147.332 12.6897 148.445 12.3962 149.696 12.3962C150.901 12.3962 151.975 12.6813 152.917 13.2516C153.859 13.8218 154.593 14.6268 155.118 15.6667C155.644 16.6897 155.906 17.8721 155.906 19.2138ZM153.149 18.3082C153.133 17.2516 152.786 16.4046 152.106 15.7673C151.426 15.13 150.584 14.8113 149.58 14.8113C148.669 14.8113 147.888 15.13 147.24 15.7673C146.591 16.3878 146.204 17.2348 146.081 18.3082H153.149Z" fill="white"/>
<path d="M170 12.6226L162.167 33H159.433L162.028 26.2579L157 12.6226H159.943L163.535 23.1887L167.266 12.6226H170Z" fill="white"/>
<g clip-path="url(#clip0_1_32)">
<path d="M34.1422 5.85781C30.3647 2.08031 25.3422 0 20 0C14.6578 0 9.63531 2.08031 5.85781 5.85781C2.08031 9.63531 0 14.6578 0 20C0 25.3422 2.08039 30.3646 5.85781 34.1422C9.63523 37.9198 14.6578 40 20 40C25.3422 40 30.3647 37.9197 34.1422 34.1422C37.9197 30.3647 40 25.3422 40 20C40 14.6578 37.9196 9.63539 34.1422 5.85781Z" fill="#FFB328"/>
<path d="M20.5714 8V33.1429" stroke="white" stroke-width="2" stroke-linecap="round" stroke-linejoin="round"/>
<path d="M26.2857 12.5714H17.7143C16.6534 12.5714 15.636 12.9929 14.8859 13.743C14.1357 14.4931 13.7143 15.5106 13.7143 16.5714C13.7143 17.6323 14.1357 18.6497 14.8859 19.3999C15.636 20.15 16.6534 20.5714 17.7143 20.5714H23.4286C24.4894 20.5714 25.5069 20.9929 26.257 21.743C27.0072 22.4932 27.4286 23.5106 27.4286 24.5714C27.4286 25.6323 27.0072 26.6497 26.257 27.3999C25.5069 28.15 24.4894 28.5714 23.4286 28.5714H13.7143" stroke="white" stroke-width="2" stroke-linecap="round" stroke-linejoin="round"/>
</g>
<defs>
<clipPath id="clip0_1_32">
<rect width="40" height="40" fill="white"/>
</clipPath>
</defs>
</svg>
